<mxfile host="65bd71144e">
    <diagram id="ER1k_puLuOxFpaad6JYL" name="Page-1">
        <mxGraphModel dx="1413" dy="1935" grid="1" gridSize="10" guides="1" tooltips="1" connect="1" arrows="1" fold="1" page="1" pageScale="1" pageWidth="827" pageHeight="1169" math="0" shadow="0">
            <root>
                <mxCell id="0"/>
                <mxCell id="1" parent="0"/>
                <mxCell id="25" value="" style="edgeStyle=none;html=1;fontSize=24;" edge="1" parent="1" source="2" target="5">
                    <mxGeometry relative="1" as="geometry"/>
                </mxCell>
                <mxCell id="2" value="&lt;font style=&quot;font-size: 24px;&quot;&gt;Style_image&lt;/font&gt;" style="text;html=1;strokeColor=none;fillColor=none;align=center;verticalAlign=middle;whiteSpace=wrap;rounded=0;" vertex="1" parent="1">
                    <mxGeometry x="80" y="210" width="140" height="50" as="geometry"/>
                </mxCell>
                <mxCell id="20" value="" style="edgeStyle=none;html=1;fontSize=24;" edge="1" parent="1" source="3" target="10">
                    <mxGeometry relative="1" as="geometry"/>
                </mxCell>
                <mxCell id="3" value="&lt;span style=&quot;font-size: 24px;&quot;&gt;Result&lt;/span&gt;" style="text;html=1;strokeColor=none;fillColor=none;align=center;verticalAlign=middle;whiteSpace=wrap;rounded=0;" vertex="1" parent="1">
                    <mxGeometry x="80" y="370" width="140" height="50" as="geometry"/>
                </mxCell>
                <mxCell id="4" value="&lt;span style=&quot;font-size: 24px;&quot;&gt;content_image&lt;/span&gt;" style="text;html=1;strokeColor=none;fillColor=none;align=center;verticalAlign=middle;whiteSpace=wrap;rounded=0;" vertex="1" parent="1">
                    <mxGeometry x="50" y="535" width="170" height="50" as="geometry"/>
                </mxCell>
                <mxCell id="26" value="" style="edgeStyle=none;html=1;fontSize=24;" edge="1" parent="1" source="5" target="6">
                    <mxGeometry relative="1" as="geometry"/>
                </mxCell>
                <mxCell id="35" value="" style="edgeStyle=none;html=1;fontSize=18;" edge="1" parent="1" source="5" target="34">
                    <mxGeometry relative="1" as="geometry"/>
                </mxCell>
                <mxCell id="5" value="conv_1" style="rounded=1;whiteSpace=wrap;html=1;fontSize=24;fillColor=#FFFFCC;" vertex="1" parent="1">
                    <mxGeometry x="294" y="205" width="120" height="60" as="geometry"/>
                </mxCell>
                <mxCell id="27" value="" style="edgeStyle=none;html=1;fontSize=24;" edge="1" parent="1" source="6" target="7">
                    <mxGeometry relative="1" as="geometry"/>
                </mxCell>
                <mxCell id="41" value="" style="edgeStyle=none;html=1;fontSize=18;" edge="1" parent="1" source="6" target="37">
                    <mxGeometry relative="1" as="geometry"/>
                </mxCell>
                <mxCell id="6" value="conv_2" style="rounded=1;whiteSpace=wrap;html=1;fontSize=24;fillColor=#FFFF99;" vertex="1" parent="1">
                    <mxGeometry x="460" y="205" width="120" height="60" as="geometry"/>
                </mxCell>
                <mxCell id="28" value="" style="edgeStyle=none;html=1;fontSize=24;" edge="1" parent="1" source="7" target="8">
                    <mxGeometry relative="1" as="geometry"/>
                </mxCell>
                <mxCell id="43" value="" style="edgeStyle=none;html=1;fontSize=18;" edge="1" parent="1" source="7" target="38">
                    <mxGeometry relative="1" as="geometry"/>
                </mxCell>
                <mxCell id="7" value="conv_3" style="rounded=1;whiteSpace=wrap;html=1;fontSize=24;fillColor=#FFFF66;" vertex="1" parent="1">
                    <mxGeometry x="630" y="205" width="120" height="60" as="geometry"/>
                </mxCell>
                <mxCell id="29" value="" style="edgeStyle=none;html=1;fontSize=24;" edge="1" parent="1" source="8" target="9">
                    <mxGeometry relative="1" as="geometry"/>
                </mxCell>
                <mxCell id="45" value="" style="edgeStyle=none;html=1;fontSize=18;" edge="1" parent="1" source="8" target="39">
                    <mxGeometry relative="1" as="geometry"/>
                </mxCell>
                <mxCell id="8" value="conv_4" style="rounded=1;whiteSpace=wrap;html=1;fontSize=24;fillColor=#FFFF33;" vertex="1" parent="1">
                    <mxGeometry x="800" y="205" width="120" height="60" as="geometry"/>
                </mxCell>
                <mxCell id="47" value="" style="edgeStyle=none;html=1;fontSize=18;" edge="1" parent="1" source="9" target="40">
                    <mxGeometry relative="1" as="geometry"/>
                </mxCell>
                <mxCell id="9" value="conv_5" style="rounded=1;whiteSpace=wrap;html=1;fontSize=24;fillColor=#FFFF00;" vertex="1" parent="1">
                    <mxGeometry x="970" y="205" width="120" height="60" as="geometry"/>
                </mxCell>
                <mxCell id="21" value="" style="edgeStyle=none;html=1;fontSize=24;" edge="1" parent="1" source="10" target="12">
                    <mxGeometry relative="1" as="geometry"/>
                </mxCell>
                <mxCell id="36" value="" style="edgeStyle=none;html=1;fontSize=18;" edge="1" parent="1" source="10" target="34">
                    <mxGeometry relative="1" as="geometry"/>
                </mxCell>
                <mxCell id="50" value="" style="edgeStyle=none;html=1;fontSize=14;" edge="1" parent="1" source="10" target="49">
                    <mxGeometry relative="1" as="geometry"/>
                </mxCell>
                <mxCell id="106" style="edgeStyle=none;html=1;exitX=0;exitY=0.75;exitDx=0;exitDy=0;entryX=0.5;entryY=1;entryDx=0;entryDy=0;fontSize=24;" edge="1" parent="1" source="10" target="3">
                    <mxGeometry relative="1" as="geometry">
                        <Array as="points">
                            <mxPoint x="220" y="450"/>
                        </Array>
                    </mxGeometry>
                </mxCell>
                <mxCell id="10" value="conv_1" style="rounded=1;whiteSpace=wrap;html=1;fontSize=24;fillColor=#CCFFCC;" vertex="1" parent="1">
                    <mxGeometry x="294" y="365" width="120" height="60" as="geometry"/>
                </mxCell>
                <mxCell id="30" value="" style="edgeStyle=none;html=1;fontSize=24;" edge="1" parent="1" source="11" target="13">
                    <mxGeometry relative="1" as="geometry"/>
                </mxCell>
                <mxCell id="51" value="" style="edgeStyle=none;html=1;fontSize=14;" edge="1" parent="1" source="11" target="49">
                    <mxGeometry relative="1" as="geometry"/>
                </mxCell>
                <mxCell id="11" value="conv_1" style="rounded=1;whiteSpace=wrap;html=1;fontSize=24;fillColor=#CCFFFF;" vertex="1" parent="1">
                    <mxGeometry x="294" y="530" width="120" height="60" as="geometry"/>
                </mxCell>
                <mxCell id="22" value="" style="edgeStyle=none;html=1;fontSize=24;" edge="1" parent="1" source="12" target="14">
                    <mxGeometry relative="1" as="geometry"/>
                </mxCell>
                <mxCell id="42" value="" style="edgeStyle=none;html=1;fontSize=18;" edge="1" parent="1" source="12" target="37">
                    <mxGeometry relative="1" as="geometry"/>
                </mxCell>
                <mxCell id="53" value="" style="edgeStyle=none;html=1;fontSize=14;" edge="1" parent="1" source="12" target="52">
                    <mxGeometry relative="1" as="geometry"/>
                </mxCell>
                <mxCell id="104" style="edgeStyle=none;html=1;exitX=0;exitY=0.75;exitDx=0;exitDy=0;entryX=1;entryY=0.75;entryDx=0;entryDy=0;fontSize=24;" edge="1" parent="1" source="12" target="10">
                    <mxGeometry relative="1" as="geometry"/>
                </mxCell>
                <mxCell id="12" value="conv_2" style="rounded=1;whiteSpace=wrap;html=1;fontSize=24;fillColor=#99FF99;" vertex="1" parent="1">
                    <mxGeometry x="460" y="365" width="120" height="60" as="geometry"/>
                </mxCell>
                <mxCell id="31" value="" style="edgeStyle=none;html=1;fontSize=24;" edge="1" parent="1" source="13" target="15">
                    <mxGeometry relative="1" as="geometry"/>
                </mxCell>
                <mxCell id="54" value="" style="edgeStyle=none;html=1;fontSize=14;" edge="1" parent="1" source="13" target="52">
                    <mxGeometry relative="1" as="geometry"/>
                </mxCell>
                <mxCell id="13" value="conv_2" style="rounded=1;whiteSpace=wrap;html=1;fontSize=24;fillColor=#99FFFF;" vertex="1" parent="1">
                    <mxGeometry x="460" y="530" width="120" height="60" as="geometry"/>
                </mxCell>
                <mxCell id="23" value="" style="edgeStyle=none;html=1;fontSize=24;" edge="1" parent="1" source="14" target="16">
                    <mxGeometry relative="1" as="geometry"/>
                </mxCell>
                <mxCell id="44" value="" style="edgeStyle=none;html=1;fontSize=18;" edge="1" parent="1" source="14" target="38">
                    <mxGeometry relative="1" as="geometry"/>
                </mxCell>
                <mxCell id="56" value="" style="edgeStyle=none;html=1;fontSize=14;" edge="1" parent="1" source="14" target="55">
                    <mxGeometry relative="1" as="geometry"/>
                </mxCell>
                <mxCell id="103" style="edgeStyle=none;html=1;exitX=0;exitY=0.75;exitDx=0;exitDy=0;entryX=1;entryY=0.75;entryDx=0;entryDy=0;fontSize=24;" edge="1" parent="1" source="14" target="12">
                    <mxGeometry relative="1" as="geometry"/>
                </mxCell>
                <mxCell id="14" value="conv_3" style="rounded=1;whiteSpace=wrap;html=1;fontSize=24;fillColor=#66FF66;" vertex="1" parent="1">
                    <mxGeometry x="630" y="365" width="120" height="60" as="geometry"/>
                </mxCell>
                <mxCell id="32" value="" style="edgeStyle=none;html=1;fontSize=24;" edge="1" parent="1" source="15" target="17">
                    <mxGeometry relative="1" as="geometry"/>
                </mxCell>
                <mxCell id="57" value="" style="edgeStyle=none;html=1;fontSize=14;" edge="1" parent="1" source="15" target="55">
                    <mxGeometry relative="1" as="geometry"/>
                </mxCell>
                <mxCell id="15" value="conv_3" style="rounded=1;whiteSpace=wrap;html=1;fontSize=24;fillColor=#66FFFF;" vertex="1" parent="1">
                    <mxGeometry x="630" y="530" width="120" height="60" as="geometry"/>
                </mxCell>
                <mxCell id="24" value="" style="edgeStyle=none;html=1;fontSize=24;" edge="1" parent="1" source="16" target="18">
                    <mxGeometry relative="1" as="geometry"/>
                </mxCell>
                <mxCell id="46" value="" style="edgeStyle=none;html=1;fontSize=18;" edge="1" parent="1" source="16" target="39">
                    <mxGeometry relative="1" as="geometry"/>
                </mxCell>
                <mxCell id="59" value="" style="edgeStyle=none;html=1;fontSize=14;" edge="1" parent="1" source="16" target="58">
                    <mxGeometry relative="1" as="geometry"/>
                </mxCell>
                <mxCell id="102" style="edgeStyle=none;html=1;exitX=0;exitY=0.75;exitDx=0;exitDy=0;entryX=1;entryY=0.75;entryDx=0;entryDy=0;fontSize=24;" edge="1" parent="1" source="16" target="14">
                    <mxGeometry relative="1" as="geometry"/>
                </mxCell>
                <mxCell id="16" value="conv_4" style="rounded=1;whiteSpace=wrap;html=1;fontSize=24;fillColor=#33FF33;" vertex="1" parent="1">
                    <mxGeometry x="800" y="365" width="120" height="60" as="geometry"/>
                </mxCell>
                <mxCell id="33" value="" style="edgeStyle=none;html=1;fontSize=24;" edge="1" parent="1" source="17" target="19">
                    <mxGeometry relative="1" as="geometry"/>
                </mxCell>
                <mxCell id="60" value="" style="edgeStyle=none;html=1;fontSize=14;" edge="1" parent="1" source="17" target="58">
                    <mxGeometry relative="1" as="geometry"/>
                </mxCell>
                <mxCell id="17" value="conv_4" style="rounded=1;whiteSpace=wrap;html=1;fontSize=24;fillColor=#33FFFF;" vertex="1" parent="1">
                    <mxGeometry x="800" y="530" width="120" height="60" as="geometry"/>
                </mxCell>
                <mxCell id="48" value="" style="edgeStyle=none;html=1;fontSize=18;" edge="1" parent="1" source="18" target="40">
                    <mxGeometry relative="1" as="geometry"/>
                </mxCell>
                <mxCell id="62" value="" style="edgeStyle=none;html=1;fontSize=14;" edge="1" parent="1" source="18" target="61">
                    <mxGeometry relative="1" as="geometry"/>
                </mxCell>
                <mxCell id="101" style="edgeStyle=none;html=1;exitX=0;exitY=0.75;exitDx=0;exitDy=0;entryX=1;entryY=0.75;entryDx=0;entryDy=0;fontSize=24;" edge="1" parent="1" source="18" target="16">
                    <mxGeometry relative="1" as="geometry"/>
                </mxCell>
                <mxCell id="18" value="conv_5" style="rounded=1;whiteSpace=wrap;html=1;fontSize=24;fillColor=#00FF00;" vertex="1" parent="1">
                    <mxGeometry x="970" y="365" width="120" height="60" as="geometry"/>
                </mxCell>
                <mxCell id="63" value="" style="edgeStyle=none;html=1;fontSize=14;" edge="1" parent="1" source="19" target="61">
                    <mxGeometry relative="1" as="geometry"/>
                </mxCell>
                <mxCell id="19" value="conv_5" style="rounded=1;whiteSpace=wrap;html=1;fontSize=24;fillColor=#00FFFF;" vertex="1" parent="1">
                    <mxGeometry x="970" y="530" width="120" height="60" as="geometry"/>
                </mxCell>
                <mxCell id="65" style="edgeStyle=none;html=1;exitX=0;exitY=0;exitDx=0;exitDy=0;fontSize=14;" edge="1" parent="1" source="34" target="64">
                    <mxGeometry relative="1" as="geometry"/>
                </mxCell>
                <mxCell id="34" value="&lt;font style=&quot;font-size: 18px;&quot;&gt;style_loss1&lt;/font&gt;" style="text;html=1;strokeColor=none;fillColor=none;align=center;verticalAlign=middle;whiteSpace=wrap;rounded=0;fontSize=24;" vertex="1" parent="1">
                    <mxGeometry x="299" y="300" width="110" height="30" as="geometry"/>
                </mxCell>
                <mxCell id="71" style="edgeStyle=none;html=1;exitX=0;exitY=0;exitDx=0;exitDy=0;entryX=0.667;entryY=1;entryDx=0;entryDy=0;entryPerimeter=0;fontSize=14;" edge="1" parent="1" source="37" target="67">
                    <mxGeometry relative="1" as="geometry"/>
                </mxCell>
                <mxCell id="37" value="&lt;font style=&quot;font-size: 18px;&quot;&gt;style_loss2&lt;/font&gt;" style="text;html=1;strokeColor=none;fillColor=none;align=center;verticalAlign=middle;whiteSpace=wrap;rounded=0;fontSize=24;" vertex="1" parent="1">
                    <mxGeometry x="465" y="300" width="110" height="30" as="geometry"/>
                </mxCell>
                <mxCell id="73" style="edgeStyle=none;html=1;exitX=0;exitY=0;exitDx=0;exitDy=0;entryX=0.669;entryY=0.994;entryDx=0;entryDy=0;entryPerimeter=0;fontSize=14;" edge="1" parent="1" source="38" target="68">
                    <mxGeometry relative="1" as="geometry"/>
                </mxCell>
                <mxCell id="38" value="&lt;font style=&quot;font-size: 18px;&quot;&gt;style_loss3&lt;/font&gt;" style="text;html=1;strokeColor=none;fillColor=none;align=center;verticalAlign=middle;whiteSpace=wrap;rounded=0;fontSize=24;" vertex="1" parent="1">
                    <mxGeometry x="635" y="300" width="110" height="30" as="geometry"/>
                </mxCell>
                <mxCell id="75" style="edgeStyle=none;html=1;exitX=0;exitY=0;exitDx=0;exitDy=0;entryX=0.619;entryY=0.994;entryDx=0;entryDy=0;entryPerimeter=0;fontSize=14;" edge="1" parent="1" source="39" target="69">
                    <mxGeometry relative="1" as="geometry"/>
                </mxCell>
                <mxCell id="39" value="&lt;font style=&quot;font-size: 18px;&quot;&gt;style_loss4&lt;/font&gt;" style="text;html=1;strokeColor=none;fillColor=none;align=center;verticalAlign=middle;whiteSpace=wrap;rounded=0;fontSize=24;" vertex="1" parent="1">
                    <mxGeometry x="805" y="300" width="110" height="30" as="geometry"/>
                </mxCell>
                <mxCell id="77" style="edgeStyle=none;html=1;exitX=0;exitY=0;exitDx=0;exitDy=0;entryX=0.614;entryY=1.05;entryDx=0;entryDy=0;entryPerimeter=0;fontSize=14;" edge="1" parent="1" source="40" target="70">
                    <mxGeometry relative="1" as="geometry"/>
                </mxCell>
                <mxCell id="40" value="&lt;font style=&quot;font-size: 18px;&quot;&gt;style_loss5&lt;/font&gt;" style="text;html=1;strokeColor=none;fillColor=none;align=center;verticalAlign=middle;whiteSpace=wrap;rounded=0;fontSize=24;" vertex="1" parent="1">
                    <mxGeometry x="975" y="300" width="110" height="30" as="geometry"/>
                </mxCell>
                <mxCell id="66" style="edgeStyle=none;html=1;exitX=0;exitY=0;exitDx=0;exitDy=0;entryX=0.5;entryY=1;entryDx=0;entryDy=0;fontSize=14;" edge="1" parent="1" source="49" target="64">
                    <mxGeometry relative="1" as="geometry"/>
                </mxCell>
                <mxCell id="49" value="&lt;font style=&quot;font-size: 14px;&quot;&gt;content_loss1&lt;/font&gt;" style="text;html=1;strokeColor=none;fillColor=none;align=center;verticalAlign=middle;whiteSpace=wrap;rounded=0;fontSize=24;" vertex="1" parent="1">
                    <mxGeometry x="299" y="460" width="110" height="30" as="geometry"/>
                </mxCell>
                <mxCell id="72" style="edgeStyle=none;html=1;exitX=0;exitY=0;exitDx=0;exitDy=0;entryX=0.5;entryY=1;entryDx=0;entryDy=0;fontSize=14;" edge="1" parent="1" source="52" target="67">
                    <mxGeometry relative="1" as="geometry"/>
                </mxCell>
                <mxCell id="52" value="&lt;font style=&quot;font-size: 14px;&quot;&gt;content_loss2&lt;/font&gt;" style="text;html=1;strokeColor=none;fillColor=none;align=center;verticalAlign=middle;whiteSpace=wrap;rounded=0;fontSize=24;" vertex="1" parent="1">
                    <mxGeometry x="465" y="460" width="110" height="30" as="geometry"/>
                </mxCell>
                <mxCell id="74" style="edgeStyle=none;html=1;exitX=0;exitY=0;exitDx=0;exitDy=0;entryX=0.5;entryY=1;entryDx=0;entryDy=0;fontSize=14;" edge="1" parent="1" source="55" target="68">
                    <mxGeometry relative="1" as="geometry"/>
                </mxCell>
                <mxCell id="55" value="&lt;font style=&quot;font-size: 14px;&quot;&gt;content_loss3&lt;/font&gt;" style="text;html=1;strokeColor=none;fillColor=none;align=center;verticalAlign=middle;whiteSpace=wrap;rounded=0;fontSize=24;" vertex="1" parent="1">
                    <mxGeometry x="635" y="460" width="110" height="30" as="geometry"/>
                </mxCell>
                <mxCell id="76" style="edgeStyle=none;html=1;exitX=0;exitY=0;exitDx=0;exitDy=0;entryX=0.5;entryY=1;entryDx=0;entryDy=0;fontSize=14;" edge="1" parent="1" source="58" target="69">
                    <mxGeometry relative="1" as="geometry"/>
                </mxCell>
                <mxCell id="58" value="&lt;font style=&quot;font-size: 14px;&quot;&gt;content_loss4&lt;/font&gt;" style="text;html=1;strokeColor=none;fillColor=none;align=center;verticalAlign=middle;whiteSpace=wrap;rounded=0;fontSize=24;" vertex="1" parent="1">
                    <mxGeometry x="805" y="460" width="110" height="30" as="geometry"/>
                </mxCell>
                <mxCell id="78" style="edgeStyle=none;html=1;exitX=0;exitY=0;exitDx=0;exitDy=0;entryX=0.5;entryY=1;entryDx=0;entryDy=0;fontSize=14;" edge="1" parent="1" source="61" target="70">
                    <mxGeometry relative="1" as="geometry"/>
                </mxCell>
                <mxCell id="61" value="&lt;font style=&quot;font-size: 14px;&quot;&gt;content_loss5&lt;/font&gt;" style="text;html=1;strokeColor=none;fillColor=none;align=center;verticalAlign=middle;whiteSpace=wrap;rounded=0;fontSize=24;" vertex="1" parent="1">
                    <mxGeometry x="975" y="460" width="110" height="30" as="geometry"/>
                </mxCell>
                <mxCell id="64" value="loss1 = cont_loss1&lt;br&gt;+ α * style_loss1" style="rounded=0;whiteSpace=wrap;html=1;fontSize=14;fillColor=#FFCCCC;" vertex="1" parent="1">
                    <mxGeometry x="140" y="60" width="120" height="60" as="geometry"/>
                </mxCell>
                <mxCell id="68" value="loss3 = cont_loss3&lt;br&gt;+ α * style_loss3" style="rounded=0;whiteSpace=wrap;html=1;fontSize=14;fillColor=#FF6666;" vertex="1" parent="1">
                    <mxGeometry x="520" y="60" width="120" height="60" as="geometry"/>
                </mxCell>
                <mxCell id="69" value="loss4 = cont_loss4&lt;br&gt;+ α * style_loss4" style="rounded=0;whiteSpace=wrap;html=1;fontSize=14;fillColor=#FF3333;" vertex="1" parent="1">
                    <mxGeometry x="700" y="60" width="120" height="60" as="geometry"/>
                </mxCell>
                <mxCell id="70" value="loss5 = cont_loss5&lt;br&gt;+ α * style_loss5" style="rounded=0;whiteSpace=wrap;html=1;fontSize=14;fillColor=#FF0000;" vertex="1" parent="1">
                    <mxGeometry x="880" y="60" width="120" height="60" as="geometry"/>
                </mxCell>
                <mxCell id="79" value="&lt;font style=&quot;font-size: 24px;&quot;&gt;+&lt;/font&gt;" style="text;html=1;strokeColor=none;fillColor=none;align=center;verticalAlign=middle;whiteSpace=wrap;rounded=0;fontSize=14;" vertex="1" parent="1">
                    <mxGeometry x="270" y="75" width="60" height="30" as="geometry"/>
                </mxCell>
                <mxCell id="80" value="&lt;font style=&quot;font-size: 24px;&quot;&gt;+&lt;/font&gt;" style="text;html=1;strokeColor=none;fillColor=none;align=center;verticalAlign=middle;whiteSpace=wrap;rounded=0;fontSize=14;" vertex="1" parent="1">
                    <mxGeometry x="460" y="75" width="60" height="30" as="geometry"/>
                </mxCell>
                <mxCell id="81" value="&lt;font style=&quot;font-size: 24px;&quot;&gt;+&lt;/font&gt;" style="text;html=1;strokeColor=none;fillColor=none;align=center;verticalAlign=middle;whiteSpace=wrap;rounded=0;fontSize=14;" vertex="1" parent="1">
                    <mxGeometry x="640" y="75" width="60" height="30" as="geometry"/>
                </mxCell>
                <mxCell id="82" value="&lt;font style=&quot;font-size: 24px;&quot;&gt;+&lt;/font&gt;" style="text;html=1;strokeColor=none;fillColor=none;align=center;verticalAlign=middle;whiteSpace=wrap;rounded=0;fontSize=14;" vertex="1" parent="1">
                    <mxGeometry x="820" y="75" width="60" height="30" as="geometry"/>
                </mxCell>
                <mxCell id="84" value="&lt;font style=&quot;font-size: 18px;&quot;&gt;w1&lt;/font&gt;" style="rounded=0;whiteSpace=wrap;html=1;fontSize=24;fillColor=#FFE6CC;" vertex="1" parent="1">
                    <mxGeometry x="165" y="-30" width="70" height="30" as="geometry"/>
                </mxCell>
                <mxCell id="85" value="&lt;font style=&quot;font-size: 18px;&quot;&gt;w2&lt;/font&gt;" style="rounded=0;whiteSpace=wrap;html=1;fontSize=24;fillColor=#FFCC99;" vertex="1" parent="1">
                    <mxGeometry x="365" y="-30" width="70" height="30" as="geometry"/>
                </mxCell>
                <mxCell id="86" value="&lt;font style=&quot;font-size: 18px;&quot;&gt;w3&lt;/font&gt;" style="rounded=0;whiteSpace=wrap;html=1;fontSize=24;fillColor=#FFB366;" vertex="1" parent="1">
                    <mxGeometry x="545" y="-30" width="70" height="30" as="geometry"/>
                </mxCell>
                <mxCell id="87" value="&lt;font style=&quot;font-size: 18px;&quot;&gt;w4&lt;/font&gt;" style="rounded=0;whiteSpace=wrap;html=1;fontSize=24;fillColor=#FF9933;" vertex="1" parent="1">
                    <mxGeometry x="725" y="-30" width="70" height="30" as="geometry"/>
                </mxCell>
                <mxCell id="88" value="&lt;font style=&quot;font-size: 18px;&quot;&gt;w5&lt;/font&gt;" style="rounded=0;whiteSpace=wrap;html=1;fontSize=24;fillColor=#FF8000;" vertex="1" parent="1">
                    <mxGeometry x="905" y="-30" width="70" height="30" as="geometry"/>
                </mxCell>
                <mxCell id="89" value="&lt;font style=&quot;font-size: 24px;&quot;&gt;*&lt;/font&gt;" style="text;html=1;strokeColor=none;fillColor=none;align=center;verticalAlign=middle;whiteSpace=wrap;rounded=0;fontSize=14;" vertex="1" parent="1">
                    <mxGeometry x="170" y="20" width="60" height="30" as="geometry"/>
                </mxCell>
                <mxCell id="90" value="&lt;font style=&quot;font-size: 24px;&quot;&gt;*&lt;/font&gt;" style="text;html=1;strokeColor=none;fillColor=none;align=center;verticalAlign=middle;whiteSpace=wrap;rounded=0;fontSize=14;" vertex="1" parent="1">
                    <mxGeometry x="370" y="20" width="60" height="30" as="geometry"/>
                </mxCell>
                <mxCell id="91" value="&lt;font style=&quot;font-size: 24px;&quot;&gt;*&lt;/font&gt;" style="text;html=1;strokeColor=none;fillColor=none;align=center;verticalAlign=middle;whiteSpace=wrap;rounded=0;fontSize=14;" vertex="1" parent="1">
                    <mxGeometry x="550" y="20" width="60" height="30" as="geometry"/>
                </mxCell>
                <mxCell id="92" value="&lt;font style=&quot;font-size: 24px;&quot;&gt;*&lt;/font&gt;" style="text;html=1;strokeColor=none;fillColor=none;align=center;verticalAlign=middle;whiteSpace=wrap;rounded=0;fontSize=14;" vertex="1" parent="1">
                    <mxGeometry x="730" y="20" width="60" height="30" as="geometry"/>
                </mxCell>
                <mxCell id="93" value="&lt;font style=&quot;font-size: 24px;&quot;&gt;*&lt;/font&gt;" style="text;html=1;strokeColor=none;fillColor=none;align=center;verticalAlign=middle;whiteSpace=wrap;rounded=0;fontSize=14;" vertex="1" parent="1">
                    <mxGeometry x="910" y="20" width="60" height="30" as="geometry"/>
                </mxCell>
                <mxCell id="94" value="&lt;font style=&quot;font-size: 24px;&quot;&gt;=&lt;/font&gt;" style="text;html=1;strokeColor=none;fillColor=none;align=center;verticalAlign=middle;whiteSpace=wrap;rounded=0;fontSize=14;" vertex="1" parent="1">
                    <mxGeometry x="1020" y="75" width="60" height="30" as="geometry"/>
                </mxCell>
                <mxCell id="96" style="edgeStyle=none;html=1;exitX=0.5;exitY=1;exitDx=0;exitDy=0;entryX=1;entryY=0.75;entryDx=0;entryDy=0;fontSize=24;" edge="1" parent="1" source="95" target="18">
                    <mxGeometry relative="1" as="geometry">
                        <Array as="points">
                            <mxPoint x="1160" y="410"/>
                        </Array>
                    </mxGeometry>
                </mxCell>
                <mxCell id="95" value="&lt;font style=&quot;font-size: 24px;&quot;&gt;loss&lt;/font&gt;" style="rounded=0;whiteSpace=wrap;html=1;fontSize=14;fillColor=#E5CCFF;" vertex="1" parent="1">
                    <mxGeometry x="1100" y="60" width="120" height="60" as="geometry"/>
                </mxCell>
                <mxCell id="67" value="loss2 = cont_loss2&lt;br&gt;+ α * style_loss2" style="rounded=0;whiteSpace=wrap;html=1;fontSize=14;fillColor=#FF9999;" vertex="1" parent="1">
                    <mxGeometry x="340" y="60" width="120" height="60" as="geometry"/>
                </mxCell>
                <mxCell id="98" value="backpropagation" style="rounded=1;whiteSpace=wrap;html=1;fontSize=24;fillColor=#FFFFCC;" vertex="1" parent="1">
                    <mxGeometry x="1190" y="340" width="210" height="60" as="geometry"/>
                </mxCell>
                <mxCell id="107" value="Update" style="text;html=1;strokeColor=none;fillColor=none;align=center;verticalAlign=middle;whiteSpace=wrap;rounded=0;fontSize=24;" vertex="1" parent="1">
                    <mxGeometry x="180" y="460" width="70" height="30" as="geometry"/>
                </mxCell>
                <mxCell id="108" value="Table" style="shape=table;startSize=30;container=1;collapsible=0;childLayout=tableLayout;fixedRows=1;rowLines=0;fontStyle=1;fontSize=24;fillColor=#FFFFCC;" vertex="1" parent="1">
                    <mxGeometry x="125" y="790" width="240" height="220" as="geometry"/>
                </mxCell>
                <mxCell id="109" value="" style="shape=tableRow;horizontal=0;startSize=0;swimlaneHead=0;swimlaneBody=0;top=0;left=0;bottom=0;right=0;collapsible=0;dropTarget=0;fillColor=none;points=[[0,0.5],[1,0.5]];portConstraint=eastwest;fontSize=24;" vertex="1" parent="108">
                    <mxGeometry y="30" width="240" height="30" as="geometry"/>
                </mxCell>
                <mxCell id="110" value="w1" style="shape=partialRectangle;html=1;whiteSpace=wrap;connectable=0;fillColor=none;top=0;left=0;bottom=0;right=0;overflow=hidden;pointerEvents=1;fontSize=24;" vertex="1" parent="109">
                    <mxGeometry width="53" height="30" as="geometry">
                        <mxRectangle width="53" height="30" as="alternateBounds"/>
                    </mxGeometry>
                </mxCell>
                <mxCell id="111" value="Value 0.5" style="shape=partialRectangle;html=1;whiteSpace=wrap;connectable=0;fillColor=none;top=0;left=0;bottom=0;right=0;align=left;spacingLeft=6;overflow=hidden;fontSize=24;" vertex="1" parent="109">
                    <mxGeometry x="53" width="187" height="30" as="geometry">
                        <mxRectangle width="187" height="30" as="alternateBounds"/>
                    </mxGeometry>
                </mxCell>
                <mxCell id="112" value="" style="shape=tableRow;horizontal=0;startSize=0;swimlaneHead=0;swimlaneBody=0;top=0;left=0;bottom=0;right=0;collapsible=0;dropTarget=0;fillColor=none;points=[[0,0.5],[1,0.5]];portConstraint=eastwest;fontSize=24;" vertex="1" parent="108">
                    <mxGeometry y="60" width="240" height="30" as="geometry"/>
                </mxCell>
                <mxCell id="113" value="w2" style="shape=partialRectangle;html=1;whiteSpace=wrap;connectable=0;fillColor=none;top=0;left=0;bottom=0;right=0;overflow=hidden;fontSize=24;" vertex="1" parent="112">
                    <mxGeometry width="53" height="30" as="geometry">
                        <mxRectangle width="53" height="30" as="alternateBounds"/>
                    </mxGeometry>
                </mxCell>
                <mxCell id="114" value="Value 1.0" style="shape=partialRectangle;html=1;whiteSpace=wrap;connectable=0;fillColor=none;top=0;left=0;bottom=0;right=0;align=left;spacingLeft=6;overflow=hidden;fontSize=24;" vertex="1" parent="112">
                    <mxGeometry x="53" width="187" height="30" as="geometry">
                        <mxRectangle width="187" height="30" as="alternateBounds"/>
                    </mxGeometry>
                </mxCell>
                <mxCell id="115" value="" style="shape=tableRow;horizontal=0;startSize=0;swimlaneHead=0;swimlaneBody=0;top=0;left=0;bottom=0;right=0;collapsible=0;dropTarget=0;fillColor=none;points=[[0,0.5],[1,0.5]];portConstraint=eastwest;fontSize=24;" vertex="1" parent="108">
                    <mxGeometry y="90" width="240" height="30" as="geometry"/>
                </mxCell>
                <mxCell id="116" value="w3" style="shape=partialRectangle;html=1;whiteSpace=wrap;connectable=0;fillColor=none;top=0;left=0;bottom=0;right=0;overflow=hidden;fontSize=24;" vertex="1" parent="115">
                    <mxGeometry width="53" height="30" as="geometry">
                        <mxRectangle width="53" height="30" as="alternateBounds"/>
                    </mxGeometry>
                </mxCell>
                <mxCell id="117" value="Value 1.5" style="shape=partialRectangle;html=1;whiteSpace=wrap;connectable=0;fillColor=none;top=0;left=0;bottom=0;right=0;align=left;spacingLeft=6;overflow=hidden;fontSize=24;" vertex="1" parent="115">
                    <mxGeometry x="53" width="187" height="30" as="geometry">
                        <mxRectangle width="187" height="30" as="alternateBounds"/>
                    </mxGeometry>
                </mxCell>
                <mxCell id="118" value="" style="shape=tableRow;horizontal=0;startSize=0;swimlaneHead=0;swimlaneBody=0;top=0;left=0;bottom=0;right=0;collapsible=0;dropTarget=0;fillColor=none;points=[[0,0.5],[1,0.5]];portConstraint=eastwest;fontSize=24;" vertex="1" parent="108">
                    <mxGeometry y="120" width="240" height="30" as="geometry"/>
                </mxCell>
                <mxCell id="119" value="w4" style="shape=partialRectangle;html=1;whiteSpace=wrap;connectable=0;fillColor=none;top=0;left=0;bottom=0;right=0;overflow=hidden;fontSize=24;" vertex="1" parent="118">
                    <mxGeometry width="53" height="30" as="geometry">
                        <mxRectangle width="53" height="30" as="alternateBounds"/>
                    </mxGeometry>
                </mxCell>
                <mxCell id="120" value="Value 3.0" style="shape=partialRectangle;html=1;whiteSpace=wrap;connectable=0;fillColor=none;top=0;left=0;bottom=0;right=0;align=left;spacingLeft=6;overflow=hidden;fontSize=24;" vertex="1" parent="118">
                    <mxGeometry x="53" width="187" height="30" as="geometry">
                        <mxRectangle width="187" height="30" as="alternateBounds"/>
                    </mxGeometry>
                </mxCell>
                <mxCell id="121" value="" style="shape=tableRow;horizontal=0;startSize=0;swimlaneHead=0;swimlaneBody=0;top=0;left=0;bottom=0;right=0;collapsible=0;dropTarget=0;fillColor=none;points=[[0,0.5],[1,0.5]];portConstraint=eastwest;fontSize=24;" vertex="1" parent="108">
                    <mxGeometry y="150" width="240" height="30" as="geometry"/>
                </mxCell>
                <mxCell id="122" value="w5" style="shape=partialRectangle;html=1;whiteSpace=wrap;connectable=0;fillColor=none;top=0;left=0;bottom=0;right=0;overflow=hidden;fontSize=24;" vertex="1" parent="121">
                    <mxGeometry width="53" height="30" as="geometry">
                        <mxRectangle width="53" height="30" as="alternateBounds"/>
                    </mxGeometry>
                </mxCell>
                <mxCell id="123" value="Value 4.0" style="shape=partialRectangle;html=1;whiteSpace=wrap;connectable=0;fillColor=none;top=0;left=0;bottom=0;right=0;align=left;spacingLeft=6;overflow=hidden;fontSize=24;" vertex="1" parent="121">
                    <mxGeometry x="53" width="187" height="30" as="geometry">
                        <mxRectangle width="187" height="30" as="alternateBounds"/>
                    </mxGeometry>
                </mxCell>
                <mxCell id="125" value="" style="shape=tableRow;horizontal=0;startSize=0;swimlaneHead=0;swimlaneBody=0;top=0;left=0;bottom=0;right=0;collapsible=0;dropTarget=0;fillColor=none;points=[[0,0.5],[1,0.5]];portConstraint=eastwest;fontSize=24;" vertex="1" parent="108">
                    <mxGeometry y="180" width="240" height="30" as="geometry"/>
                </mxCell>
                <mxCell id="126" value="α" style="shape=partialRectangle;html=1;whiteSpace=wrap;connectable=0;fillColor=none;top=0;left=0;bottom=0;right=0;overflow=hidden;fontSize=24;" vertex="1" parent="125">
                    <mxGeometry width="53" height="30" as="geometry">
                        <mxRectangle width="53" height="30" as="alternateBounds"/>
                    </mxGeometry>
                </mxCell>
                <mxCell id="127" value="Value 1e-3" style="shape=partialRectangle;html=1;whiteSpace=wrap;connectable=0;fillColor=none;top=0;left=0;bottom=0;right=0;align=left;spacingLeft=6;overflow=hidden;fontSize=24;" vertex="1" parent="125">
                    <mxGeometry x="53" width="187" height="30" as="geometry">
                        <mxRectangle width="187" height="30" as="alternateBounds"/>
                    </mxGeometry>
                </mxCell>
                <mxCell id="124" value="Hyperparameters:" style="text;html=1;strokeColor=none;fillColor=none;align=center;verticalAlign=middle;whiteSpace=wrap;rounded=0;fontSize=24;" vertex="1" parent="1">
                    <mxGeometry x="50" y="650" width="220" height="30" as="geometry"/>
                </mxCell>
                <mxCell id="128" value="loss_fn:" style="rounded=0;whiteSpace=wrap;html=1;fontSize=24;fillColor=#FFFFCC;" vertex="1" parent="1">
                    <mxGeometry x="70" y="720" width="125" height="40" as="geometry"/>
                </mxCell>
                <mxCell id="129" value="train:" style="rounded=0;whiteSpace=wrap;html=1;fontSize=24;fillColor=#FFFFCC;" vertex="1" parent="1">
                    <mxGeometry x="590" y="720" width="125" height="40" as="geometry"/>
                </mxCell>
                <mxCell id="130" value="Table" style="shape=table;startSize=30;container=1;collapsible=0;childLayout=tableLayout;fixedRows=1;rowLines=0;fontStyle=1;fontSize=24;fillColor=#FFFFCC;" vertex="1" parent="1">
                    <mxGeometry x="640" y="790" width="370" height="130" as="geometry"/>
                </mxCell>
                <mxCell id="131" value="" style="shape=tableRow;horizontal=0;startSize=0;swimlaneHead=0;swimlaneBody=0;top=0;left=0;bottom=0;right=0;collapsible=0;dropTarget=0;fillColor=none;points=[[0,0.5],[1,0.5]];portConstraint=eastwest;fontSize=24;" vertex="1" parent="130">
                    <mxGeometry y="30" width="370" height="30" as="geometry"/>
                </mxCell>
                <mxCell id="132" value="lr" style="shape=partialRectangle;html=1;whiteSpace=wrap;connectable=0;fillColor=none;top=0;left=0;bottom=0;right=0;overflow=hidden;pointerEvents=1;fontSize=24;" vertex="1" parent="131">
                    <mxGeometry width="130" height="30" as="geometry">
                        <mxRectangle width="130" height="30" as="alternateBounds"/>
                    </mxGeometry>
                </mxCell>
                <mxCell id="133" value="Value 0.01" style="shape=partialRectangle;html=1;whiteSpace=wrap;connectable=0;fillColor=none;top=0;left=0;bottom=0;right=0;align=left;spacingLeft=6;overflow=hidden;fontSize=24;" vertex="1" parent="131">
                    <mxGeometry x="130" width="240" height="30" as="geometry">
                        <mxRectangle width="240" height="30" as="alternateBounds"/>
                    </mxGeometry>
                </mxCell>
                <mxCell id="134" value="" style="shape=tableRow;horizontal=0;startSize=0;swimlaneHead=0;swimlaneBody=0;top=0;left=0;bottom=0;right=0;collapsible=0;dropTarget=0;fillColor=none;points=[[0,0.5],[1,0.5]];portConstraint=eastwest;fontSize=24;" vertex="1" parent="130">
                    <mxGeometry y="60" width="370" height="30" as="geometry"/>
                </mxCell>
                <mxCell id="135" value="optimizer" style="shape=partialRectangle;html=1;whiteSpace=wrap;connectable=0;fillColor=none;top=0;left=0;bottom=0;right=0;overflow=hidden;fontSize=24;" vertex="1" parent="134">
                    <mxGeometry width="130" height="30" as="geometry">
                        <mxRectangle width="130" height="30" as="alternateBounds"/>
                    </mxGeometry>
                </mxCell>
                <mxCell id="136" value="Kind: Adam" style="shape=partialRectangle;html=1;whiteSpace=wrap;connectable=0;fillColor=none;top=0;left=0;bottom=0;right=0;align=left;spacingLeft=6;overflow=hidden;fontSize=24;" vertex="1" parent="134">
                    <mxGeometry x="130" width="240" height="30" as="geometry">
                        <mxRectangle width="240" height="30" as="alternateBounds"/>
                    </mxGeometry>
                </mxCell>
                <mxCell id="137" value="" style="shape=tableRow;horizontal=0;startSize=0;swimlaneHead=0;swimlaneBody=0;top=0;left=0;bottom=0;right=0;collapsible=0;dropTarget=0;fillColor=none;points=[[0,0.5],[1,0.5]];portConstraint=eastwest;fontSize=24;" vertex="1" parent="130">
                    <mxGeometry y="90" width="370" height="30" as="geometry"/>
                </mxCell>
                <mxCell id="138" value="epoch" style="shape=partialRectangle;html=1;whiteSpace=wrap;connectable=0;fillColor=none;top=0;left=0;bottom=0;right=0;overflow=hidden;fontSize=24;" vertex="1" parent="137">
                    <mxGeometry width="130" height="30" as="geometry">
                        <mxRectangle width="130" height="30" as="alternateBounds"/>
                    </mxGeometry>
                </mxCell>
                <mxCell id="139" value="Value 20" style="shape=partialRectangle;html=1;whiteSpace=wrap;connectable=0;fillColor=none;top=0;left=0;bottom=0;right=0;align=left;spacingLeft=6;overflow=hidden;fontSize=24;" vertex="1" parent="137">
                    <mxGeometry x="130" width="240" height="30" as="geometry">
                        <mxRectangle width="240" height="30" as="alternateBounds"/>
                    </mxGeometry>
                </mxCell>
            </root>
        </mxGraphModel>
    </diagram>
</mxfile>